<svg width="64" height="64" viewBox="0 0 64 64" fill="none" xmlns="http://www.w3.org/2000/svg">
<path d="M20.5 59.7L27.5 52.5C25 52 22.7 51 20.6 49.6L20.5 59.7ZM43.5 4.29999L36.5 11.5C39 12 41.3 13 43.4 14.4L43.5 4.29999ZM4.3 43.5L14.4 43.4C13 41.3 12 39 11.5 36.5L4.3 43.5ZM59.7 20.5L49.6 20.6C50.9 22.7 51.9 25 52.5 27.5L59.7 20.5ZM4.3 20.5L11.5 27.5C12 25 13 22.7 14.4 20.6L4.3 20.5ZM59.7 43.5L52.5 36.5C52 39 51 41.3 49.6 43.4L59.7 43.5ZM20.5 4.29999L20.6 14.4C22.7 13.1 25 12.1 27.5 11.5L20.5 4.29999V4.29999ZM43.5 59.7L43.4 49.6C41.3 51 39 52 36.5 52.5L43.5 59.7" fill="#FFE62E"/>
<path d="M14.8 44L10.8 53.3L20.1 49.3C18 47.8 16.2 46 14.8 44ZM49.2 20L53.2 10.7L44 14.7C46 16.2 47.8 18 49.2 20ZM11.4 28.3L2 32L11.4 35.7C11.1 34.5 11 33.3 11 32C11 30.7 11.1 29.5 11.4 28.3V28.3ZM52.6 35.7L62 32L52.6 28.3C52.8 29.5 53 30.8 53 32C53 33.3 52.9 34.5 52.6 35.7ZM20 14.8L10.7 10.8L14.7 20.1C16.2 18 18 16.2 20 14.8ZM44 49.2L53.3 53.2L49.3 43.9C47.8 46 46 47.8 44 49.2ZM35.7 11.4L32 2L28.3 11.4C29.5 11.2 30.8 11 32 11C33.2 11 34.5 11.1 35.7 11.4V11.4ZM28.3 52.6L32 62L35.7 52.6C34.5 52.9 33.3 53 32 53C30.7 53 29.5 52.9 28.3 52.6" fill="#FFCE31"/>
<path d="M32 51C42.4934 51 51 42.4934 51 32C51 21.5066 42.4934 13 32 13C21.5066 13 13 21.5066 13 32C13 42.4934 21.5066 51 32 51Z" fill="#FFCE31"/>
</svg>
